HIERARCHY
ROOT Pelvis
{
	OFFSET 0.000000 0.000000 0.000000
	CHANNELS 6 Xposition Yposition Zposition Xrotation Yrotation Zrotation
	JOINT LeftUpLeg_virtual
	{
		OFFSET 0.000000 0.000000 0.000000
		CHANNELS 3 Xrotation Yrotation Zrotation
		JOINT LeftUpLeg
		{
			OFFSET 18.735201 -5.666702 -4.541200
			CHANNELS 3 Xrotation Yrotation Zrotation
			JOINT LeftLeg
			{
				OFFSET -0.021200 -31.938179 0.493100
				CHANNELS 3 Xrotation Yrotation Zrotation
				JOINT LeftFoot
				{
					OFFSET 0.021200 -31.938179 -4.336299
					CHANNELS 3 Xrotation Yrotation Zrotation
					JOINT LeftToeBase
					{
						OFFSET 0.943001 -26.722000 15.023500
						CHANNELS 3 Xrotation Yrotation Zrotation
						End Site
						{
							OFFSET 0 0 0
						}
					}
				}
			}
		}
	}
	JOINT RightUpLeg_virtual
	{
		OFFSET 0.000000 0.000000 0.000000
		CHANNELS 3 Xrotation Yrotation Zrotation
		JOINT RightUpLeg
		{
			OFFSET -18.735201 -5.666702 -4.541200
			CHANNELS 3 Xrotation Yrotation Zrotation
			JOINT RightLeg
			{
				OFFSET 0.018946 -31.938133 0.493100
				CHANNELS 3 Xrotation Yrotation Zrotation
				JOINT RightFoot
				{
					OFFSET -0.018946 -31.938126 -4.336299
					CHANNELS 3 Xrotation Yrotation Zrotation
					JOINT RightToeBase
					{
						OFFSET -0.943001 -26.722004 15.023500
						CHANNELS 3 Xrotation Yrotation Zrotation
						End Site
						{
							OFFSET 0 0 0
						}
					}
				}
			}
		}
	}
	JOINT Hips_virtual
	{
		OFFSET 0.000000 0.000000 0.000000
		CHANNELS 3 Xrotation Yrotation Zrotation
		JOINT Hips
		{
			OFFSET -0.000000 -0.000000 -0.000000
			CHANNELS 3 Xrotation Yrotation Zrotation
			JOINT Spine
			{
				OFFSET 0.000000 10.199997 -0.299500
				CHANNELS 3 Xrotation Yrotation Zrotation
				JOINT Spine1
				{
					OFFSET 0.000000 11.900002 -1.516600
					CHANNELS 3 Xrotation Yrotation Zrotation
					JOINT Spine2
					{
						OFFSET 0.000000 13.600006 -2.842500
						CHANNELS 3 Xrotation Yrotation Zrotation
						JOINT Neck_virtual
						{
							OFFSET 0.000000 0.000000 0.000000
							CHANNELS 3 Xrotation Yrotation Zrotation
							JOINT Neck
							{
								OFFSET 0.000000 9.624100 -2.890100
								CHANNELS 3 Xrotation Yrotation Zrotation
								JOINT Head
								{
									OFFSET 0.000000 14.068802 -1.351900
									CHANNELS 3 Xrotation Yrotation Zrotation
									End Site
									{
										OFFSET 0 0 0
									}
								}
							}
						}
						JOINT LeftShoulder_virtual
						{
							OFFSET 0.000000 0.000000 0.000000
							CHANNELS 3 Xrotation Yrotation Zrotation
							JOINT LeftShoulder
							{
								OFFSET 15.263000 10.923401 -0.547700
								CHANNELS 3 Xrotation Yrotation Zrotation
								JOINT LeftArm
								{
									OFFSET 25.438599 -2.830597 -13.032500
									CHANNELS 3 Xrotation Yrotation Zrotation
									JOINT LeftForeArm
									{
										OFFSET 29.960503 0.000000 0.000000
										CHANNELS 3 Xrotation Yrotation Zrotation
										JOINT LeftHand
										{
											OFFSET 27.849251 0.000000 0.000000
											CHANNELS 3 Xrotation Yrotation Zrotation
											End Site
											{
												OFFSET 0 0 0
											}
										}
									}
								}
							}
						}
						JOINT RightShoulder_virtual
						{
							OFFSET 0.000000 0.000000 0.000000
							CHANNELS 3 Xrotation Yrotation Zrotation
							JOINT RightShoulder
							{
								OFFSET -15.263000 10.923401 -0.547700
								CHANNELS 3 Xrotation Yrotation Zrotation
								JOINT RightArm
								{
									OFFSET -25.438599 -2.830597 -13.032500
									CHANNELS 3 Xrotation Yrotation Zrotation
									JOINT RightForeArm
									{
										OFFSET -29.960503 0.000000 0.000000
										CHANNELS 3 Xrotation Yrotation Zrotation
										JOINT RightHand
										{
											OFFSET -27.849251 0.000000 0.000000
											CHANNELS 3 Xrotation Yrotation Zrotation
											End Site
											{
												OFFSET 0 0 0
											}
										}
									}
								}
							}
						}
					}
				}
			}
		}
	}
}
MOTION
Frames: 8
Frame Time: 0.03333333
10.018707 90.530052 108.775909 0.000000 0.000000 0.000000 13.159293 0.973527 -0.860570 -27.324088 12.897462 17.425372 52.788903 17.280075 -9.321312 -1.878303 20.797120 -6.390234 0.000000 0.000000 0.000000 -1.695974 20.713669 6.001571 -33.099165 0.103895 -8.573561 40.789155 -5.028165 -2.877645 -10.202065 -6.730836 2.566593 0.000000 0.000000 0.000000 7.564741 10.494134 -0.384151 21.264604 24.093257 -7.469561 12.192595 -3.015801 0.224121 5.255977 -1.586015 0.489898 0.000000 0.000000 0.000000 2.943666 -1.848361 0.920207 -0.680128 -0.449786 0.579240 0.000000 0.000000 0.000000 6.428641 -2.169180 0.852420 1.276566 -10.082918 -4.335895 -24.484396 -11.949300 -36.023275 -3.052247 -50.600053 -0.285898 0.000000 0.000000 0.000000 6.920259 -1.015085 0.060955 3.328430 -0.542994 2.542082 -11.476698 -0.725391 37.034884 -4.091098 62.259749 2.826097 0.000000 0.000000 0.000000 
10.198163 91.545288 110.306885 0.000000 0.000000 0.000000 12.807980 1.462577 -1.227611 -27.763486 13.029559 17.128306 51.327868 17.460007 -9.424041 -2.853045 21.049958 -6.619780 0.000000 0.000000 0.000000 -0.656757 20.786364 6.059406 -31.573502 -0.050837 -8.268691 39.048960 -5.332771 -2.816405 -11.602805 -7.163582 2.486545 0.000000 0.000000 0.000000 7.711758 11.045126 -0.430538 21.003088 24.377901 -7.388063 12.207665 -2.635137 0.113708 5.245098 -1.375661 0.445113 0.000000 0.000000 0.000000 3.104705 -1.833268 0.774527 -0.638650 -0.497753 0.516399 0.000000 0.000000 0.000000 6.487734 -1.980110 0.764856 1.382503 -9.777111 -4.474767 -23.688681 -12.006078 -36.116664 -2.757655 -50.526721 -0.137777 0.000000 0.000000 0.000000 6.977983 -0.882619 -0.013202 3.389390 -0.403974 2.542103 -12.219205 -0.317443 37.732571 -4.792060 63.128884 3.558777 0.000000 0.000000 0.000000 
10.360294 92.302292 111.791672 0.000000 0.000000 0.000000 12.454025 2.316342 -1.603183 -28.222217 13.243708 16.883739 49.981897 17.638113 -9.614844 -3.718538 21.346914 -6.971948 0.000000 0.000000 0.000000 0.258860 20.915610 6.150242 -30.194531 -0.176380 -7.945310 37.369867 -5.629987 -2.758022 -12.987278 -7.579413 2.421383 0.000000 0.000000 0.000000 7.841334 11.659739 -0.487959 20.635528 24.791700 -7.347655 12.198104 -2.235952 -0.007964 5.222820 -1.154046 0.394033 0.000000 0.000000 0.000000 3.236516 -1.789984 0.619660 -0.611201 -0.527442 0.450192 0.000000 0.000000 0.000000 6.523931 -1.780481 0.669173 1.476878 -9.427311 -4.632937 -23.005850 -12.073984 -36.258688 -2.518418 -50.529576 -0.026792 0.000000 0.000000 0.000000 7.036126 -0.740779 -0.094816 3.456849 -0.231571 2.518116 -12.831986 0.129655 38.415743 -5.445299 64.022799 4.275791 0.000000 0.000000 0.000000 
10.466206 92.851822 113.161621 0.000000 0.000000 0.000000 12.180621 2.752314 -1.935397 -28.648733 13.379398 16.641758 49.115556 17.540320 -9.916671 -4.236656 21.410242 -7.623290 0.000000 0.000000 0.000000 1.040240 21.144702 6.262984 -28.986674 -0.257421 -7.617608 35.807250 -5.904652 -2.696396 -14.314966 -7.962816 2.391294 0.000000 0.000000 0.000000 7.943082 12.325297 -0.558026 20.139397 25.265194 -7.346913 12.159923 -1.811092 -0.129228 5.186980 -0.918173 0.343367 0.000000 0.000000 0.000000 3.358460 -1.741672 0.427709 -0.588552 -0.554553 0.364727 0.000000 0.000000 0.000000 6.543288 -1.561709 0.576258 1.569048 -9.019537 -4.758262 -22.393100 -12.171098 -36.380354 -2.302429 -50.598800 0.086017 0.000000 0.000000 0.000000 7.096747 -0.579759 -0.183705 3.530310 -0.007246 2.474441 -13.335055 0.648825 39.080546 -6.059410 64.983936 4.981972 0.000000 0.000000 0.000000 
10.640188 93.156929 114.572884 0.000000 0.000000 0.000000 11.930775 3.311381 -2.160773 -29.079950 13.515316 16.545490 48.659057 17.370626 -10.217067 -4.453184 21.400352 -8.266607 0.000000 0.000000 0.000000 1.709711 21.440075 6.347975 -27.942205 -0.293835 -7.338109 34.457447 -6.172293 -2.633145 -15.504365 -8.322882 2.378866 0.000000 0.000000 0.000000 8.081555 13.102576 -0.684604 19.837885 25.879877 -7.709677 12.104084 -1.344880 -0.260772 5.144260 -0.660524 0.287910 0.000000 0.000000 0.000000 3.472830 -1.668317 0.242524 -0.569179 -0.567349 0.285119 0.000000 0.000000 0.000000 6.546746 -1.317739 0.482280 1.658702 -8.528126 -4.866281 -21.778668 -12.299693 -36.518655 -2.075669 -50.727067 0.204967 0.000000 0.000000 0.000000 7.154215 -0.393162 -0.286591 3.604320 0.302629 2.388623 -13.762043 1.277755 39.719623 -6.646027 66.049746 5.682048 0.000000 0.000000 0.000000 
10.863538 93.212646 115.911156 0.000000 0.000000 0.000000 11.447377 4.183452 -2.387176 -29.912667 13.668906 16.549123 48.241517 17.271767 -10.477927 -4.720421 21.416770 -8.777533 0.000000 0.000000 0.000000 2.304451 21.881547 6.455688 -27.003740 -0.286273 -7.048034 33.390315 -6.423842 -2.558484 -16.505138 -8.651879 2.404036 0.000000 0.000000 0.000000 8.199180 13.806446 -0.793498 19.422206 26.327181 -7.919534 12.027801 -0.870642 -0.387288 5.091307 -0.398012 0.234952 0.000000 0.000000 0.000000 3.534261 -1.574403 0.045814 -0.576610 -0.568678 0.201526 0.000000 0.000000 0.000000 6.515681 -1.063440 0.391071 1.725531 -8.013279 -4.941754 -21.309002 -12.477851 -36.696803 -1.906704 -50.982199 0.294765 0.000000 0.000000 0.000000 7.188573 -0.182249 -0.393266 3.656208 0.686582 2.305193 -14.184512 1.900188 40.338646 -7.273886 67.063128 6.426395 0.000000 0.000000 0.000000 
11.065911 93.112343 117.355927 0.000000 0.000000 0.000000 10.800035 4.960001 -2.471839 -30.987475 13.720653 16.705355 47.982895 17.282544 -10.473180 -4.898603 21.427806 -8.793478 0.000000 0.000000 0.000000 2.862659 22.387741 6.597255 -26.134551 -0.267127 -6.740415 32.608064 -6.662278 -2.466971 -17.325934 -8.954463 2.473409 0.000000 0.000000 0.000000 8.275126 14.513848 -0.886890 18.824129 26.780910 -7.994222 11.927263 -0.382459 -0.519645 5.024933 -0.127473 0.178596 0.000000 0.000000 0.000000 3.568525 -1.473633 -0.171530 -0.596798 -0.566327 0.107663 0.000000 0.000000 0.000000 6.453532 -0.786592 0.304571 1.775807 -7.427236 -4.981102 -20.889089 -12.645170 -36.913214 -1.762998 -51.280927 0.365410 0.000000 0.000000 0.000000 7.209211 0.060576 -0.513603 3.694926 1.183198 2.178955 -14.603528 2.654776 40.987531 -7.967148 68.214431 7.258896 0.000000 0.000000 0.000000 
11.261787 92.671425 118.773415 0.000000 0.000000 0.000000 10.189962 5.859808 -2.619603 -32.124729 13.830882 16.855218 48.041703 17.238667 -10.492828 -4.902832 21.372458 -8.827428 0.000000 0.000000 0.000000 3.345791 22.905050 6.752615 -25.406417 -0.241401 -6.452842 32.046435 -6.857385 -2.354632 -18.024352 -9.206316 2.613053 0.000000 0.000000 0.000000 8.327832 15.224381 -0.983496 18.114799 27.211144 -8.007702 11.811410 0.118479 -0.644934 4.951049 0.150416 0.124713 0.000000 0.000000 0.000000 3.578978 -1.377731 -0.394563 -0.627657 -0.568183 0.012247 0.000000 0.000000 0.000000 6.361151 -0.503339 0.220878 1.803281 -6.827377 -4.988353 -20.579652 -12.848420 -37.214904 -1.667826 -51.701523 0.393055 0.000000 0.000000 0.000000 7.201525 0.316182 -0.654050 3.705089 1.714052 1.988110 -15.002003 3.407713 41.595575 -8.694224 69.345695 8.124969 0.000000 0.000000 0.000000 
